<?xml version="1.0" encoding="UTF-8" standalone="no"?>
<!DOCTYPE svg PUBLIC "-//W3C//DTD SVG 1.1//EN"
 "http://www.w3.org/Graphics/SVG/1.1/DTD/svg11.dtd">
<!-- Generated by graphviz version 2.38.0 (20140413.2041)
 -->
<!-- Title: analysis_first Pages: 1 -->
<svg width="442pt" height="875pt"
 viewBox="0.00 0.00 442.00 874.74" xmlns="http://www.w3.org/2000/svg" xmlns:xlink="http://www.w3.org/1999/xlink">
<g id="graph0" class="graph" transform="scale(1 1) rotate(0) translate(4 870.74)">
<title>analysis_first</title>
<polygon fill="white" stroke="none" points="-4,4 -4,-870.74 438,-870.74 438,4 -4,4"/>
<g id="clust1" class="cluster"><title>cluster_analysis_first</title>
<polygon fill="#b4b4ff" stroke="black" points="8,-8 8,-858.74 426,-858.74 426,-8 8,-8"/>
</g>
<g id="clust2" class="cluster"><title>cluster_analysisflow_univariate</title>
<polygon fill="#ffb4b4" stroke="black" points="17,-398 17,-850.74 416,-850.74 416,-398 17,-398"/>
<text text-anchor="start" x="159" y="-836.54" font-family="Times,serif" font-weight="bold" font-size="14.00">Univariate Analysis</text>
</g>
<g id="clust3" class="cluster"><title>cluster_analysisflow_normalize</title>
<polygon fill="#b4ffb4" stroke="black" points="64,-315 64,-390 386,-390 386,-315 64,-315"/>
<text text-anchor="start" x="131.5" y="-375.8" font-family="Times,serif" font-weight="bold" font-size="14.00">Normalize Univariate Contrasts</text>
</g>
<g id="clust4" class="cluster"><title>cluster_analysisflow_multivariate</title>
<polygon fill="#ffb4b4" stroke="black" points="16,-16 16,-307 386,-307 386,-16 16,-16"/>
<text text-anchor="start" x="101" y="-292.8" font-family="Times,serif" font-weight="bold" font-size="14.00">Multivariate Analysis Preparation</text>
</g>
<!-- collect_files -->
<g id="node1" class="node"><title>collect_files</title>
<ellipse fill="#ffe6e6" stroke="black" cx="315" cy="-792.87" rx="92.7622" ry="26.7407"/>
<text text-anchor="middle" x="315" y="-796.67" font-family="Times,serif" font-size="14.00">Collect Preprocessed</text>
<text text-anchor="middle" x="315" y="-781.67" font-family="Times,serif" font-size="14.00">Files (Nipype)</text>
</g>
<!-- get_model_param -->
<g id="node3" class="node"><title>get_model_param</title>
<ellipse fill="#ffe6e6" stroke="black" cx="193" cy="-712" rx="137.576" ry="18"/>
<text text-anchor="middle" x="193" y="-708.3" font-family="Times,serif" font-size="14.00">Collect Model Parameters (Nipype)</text>
</g>
<!-- collect_files&#45;&gt;get_model_param -->
<g id="edge10" class="edge"><title>collect_files&#45;&gt;get_model_param</title>
<path fill="none" stroke="none" d="M278.065,-767.992C261.97,-757.587 243.212,-745.461 227.413,-735.247"/>
<polygon fill="none" stroke="none" points="229.274,-732.282 218.976,-729.793 225.473,-738.161 229.274,-732.282"/>
</g>
<!-- model_spec -->
<g id="node4" class="node"><title>model_spec</title>
<ellipse fill="#ffe6e6" stroke="black" cx="197" cy="-640" rx="97.4827" ry="18"/>
<text text-anchor="middle" x="197" y="-636.3" font-family="Times,serif" font-size="14.00">Specify Model (Nipype)</text>
</g>
<!-- collect_files&#45;&gt;model_spec -->
<g id="edge1" class="edge"><title>collect_files&#45;&gt;model_spec</title>
<path fill="none" stroke="#ff0000" d="M332.273,-766.111C344.007,-745.084 354.925,-715.448 340,-694 326.503,-674.603 305.036,-662.289 282.797,-654.477"/>
<polygon fill="#ff0000" stroke="#ff0000" points="283.831,-651.133 273.239,-651.397 281.684,-657.796 283.831,-651.133"/>
</g>
<!-- nuisance_reg -->
<g id="node2" class="node"><title>nuisance_reg</title>
<ellipse fill="#ffe6e6" stroke="black" cx="115" cy="-792.87" rx="89.6056" ry="26.7407"/>
<text text-anchor="middle" x="115" y="-796.67" font-family="Times,serif" font-size="14.00">Load Nuisance</text>
<text text-anchor="middle" x="115" y="-781.67" font-family="Times,serif" font-size="14.00">Regressors (Python)</text>
</g>
<!-- nuisance_reg&#45;&gt;get_model_param -->
<g id="edge11" class="edge"><title>nuisance_reg&#45;&gt;get_model_param</title>
<path fill="none" stroke="none" d="M139.68,-766.915C148.977,-757.514 159.535,-746.838 168.79,-737.481"/>
<polygon fill="none" stroke="none" points="171.339,-739.88 175.883,-730.308 166.362,-734.957 171.339,-739.88"/>
</g>
<!-- nuisance_reg&#45;&gt;model_spec -->
<g id="edge2" class="edge"><title>nuisance_reg&#45;&gt;model_spec</title>
<path fill="none" stroke="#ff0000" d="M79.5259,-768.114C54.4003,-748.28 28.087,-719.272 46,-694 60.4033,-673.68 83.2364,-661.092 106.829,-653.313"/>
<polygon fill="#ff0000" stroke="#ff0000" points="108.041,-656.603 116.604,-650.363 106.019,-649.901 108.041,-656.603"/>
</g>
<!-- get_model_param&#45;&gt;model_spec -->
<g id="edge3" class="edge"><title>get_model_param&#45;&gt;model_spec</title>
<path fill="none" stroke="#ff0000" d="M193.989,-693.697C194.43,-685.983 194.959,-676.712 195.451,-668.112"/>
<polygon fill="#ff0000" stroke="#ff0000" points="198.946,-668.288 196.023,-658.104 191.958,-667.888 198.946,-668.288"/>
</g>
<!-- comp_con_per_run -->
<g id="node9" class="node"><title>comp_con_per_run</title>
<ellipse fill="#ffe6e6" stroke="black" cx="201" cy="-258" rx="177.369" ry="18"/>
<text text-anchor="middle" x="201" y="-254.3" font-family="Times,serif" font-size="14.00">Create Single Condition Contrast List (Python)</text>
</g>
<!-- get_model_param&#45;&gt;comp_con_per_run -->
<g id="edge14" class="edge"><title>get_model_param&#45;&gt;comp_con_per_run</title>
<path fill="none" stroke="#0000ff" d="M146.652,-695.001C127.427,-686.476 106.128,-674.318 91,-658 61.7594,-626.458 53,-612.01 53,-569 53,-569 53,-569 53,-423 53,-374.899 31.7111,-353.903 60,-315 72.4366,-297.897 90.9405,-286.014 110.483,-277.759"/>
<polygon fill="#0000ff" stroke="#0000ff" points="111.789,-281.006 119.826,-274.103 109.238,-274.487 111.789,-281.006"/>
</g>
<!-- level1_design -->
<g id="node5" class="node"><title>level1_design</title>
<ellipse fill="#ffe6e6" stroke="black" cx="207" cy="-568" rx="118.079" ry="18"/>
<text text-anchor="middle" x="207" y="-564.3" font-family="Times,serif" font-size="14.00">Create 1st&#45;level Model (SPM)</text>
</g>
<!-- model_spec&#45;&gt;level1_design -->
<g id="edge4" class="edge"><title>model_spec&#45;&gt;level1_design</title>
<path fill="none" stroke="#ff0000" d="M199.472,-621.697C200.574,-613.983 201.898,-604.712 203.127,-596.112"/>
<polygon fill="#ff0000" stroke="#ff0000" points="206.607,-596.499 204.557,-586.104 199.677,-595.509 206.607,-596.499"/>
</g>
<!-- level1_est -->
<g id="node6" class="node"><title>level1_est</title>
<ellipse fill="#ffe6e6" stroke="black" cx="256" cy="-496" rx="126.978" ry="18"/>
<text text-anchor="middle" x="256" y="-492.3" font-family="Times,serif" font-size="14.00">Estimate 1st&#45;level Model (SPM)</text>
</g>
<!-- level1_design&#45;&gt;level1_est -->
<g id="edge5" class="edge"><title>level1_design&#45;&gt;level1_est</title>
<path fill="none" stroke="#ff0000" d="M218.862,-550.055C224.614,-541.837 231.646,-531.791 238.038,-522.66"/>
<polygon fill="#ff0000" stroke="#ff0000" points="241.04,-524.475 243.907,-514.275 235.305,-520.461 241.04,-524.475"/>
</g>
<!-- level1_conest_uni -->
<g id="node7" class="node"><title>level1_conest_uni</title>
<ellipse fill="#ffe6e6" stroke="black" cx="229" cy="-424" rx="143.775" ry="18"/>
<text text-anchor="middle" x="229" y="-420.3" font-family="Times,serif" font-size="14.00">Estimate Univariate Contrasts (SPM)</text>
</g>
<!-- level1_est&#45;&gt;level1_conest_uni -->
<g id="edge6" class="edge"><title>level1_est&#45;&gt;level1_conest_uni</title>
<path fill="none" stroke="#ff0000" d="M249.326,-477.697C246.285,-469.813 242.617,-460.304 239.239,-451.546"/>
<polygon fill="#ff0000" stroke="#ff0000" points="242.462,-450.175 235.597,-442.104 235.931,-452.694 242.462,-450.175"/>
</g>
<!-- write_labels_run -->
<g id="node10" class="node"><title>write_labels_run</title>
<ellipse fill="#ffe6e6" stroke="black" cx="231" cy="-186" rx="146.774" ry="18"/>
<text text-anchor="middle" x="231" y="-182.3" font-family="Times,serif" font-size="14.00">Save Condition Order to File (Python)</text>
</g>
<!-- level1_est&#45;&gt;write_labels_run -->
<g id="edge17" class="edge"><title>level1_est&#45;&gt;write_labels_run</title>
<path fill="none" stroke="#0000ff" d="M323.407,-480.667C345.205,-472.767 367.473,-460.616 382,-442 409.624,-406.6 413.874,-275.972 387,-240 374.216,-222.888 355.617,-211.25 335.683,-203.348"/>
<polygon fill="#0000ff" stroke="#0000ff" points="336.723,-200.002 326.129,-199.868 334.327,-206.579 336.723,-200.002"/>
</g>
<!-- level1_conest_multi -->
<g id="node11" class="node"><title>level1_conest_multi</title>
<ellipse fill="#ffe6e6" stroke="black" cx="207" cy="-114" rx="166.271" ry="18"/>
<text text-anchor="middle" x="207" y="-110.3" font-family="Times,serif" font-size="14.00">Estimate Single Condition Contrasts (SPM)</text>
</g>
<!-- level1_est&#45;&gt;level1_conest_multi -->
<g id="edge16" class="edge"><title>level1_est&#45;&gt;level1_conest_multi</title>
<path fill="none" stroke="#0000ff" d="M330.126,-481.282C353.86,-473.448 378.29,-461.181 395,-442 424.892,-407.687 417,-387.507 417,-342 417,-342 417,-342 417,-257 417,-215.258 417.083,-196.939 387,-168 369.048,-150.731 345.762,-139.05 321.929,-131.159"/>
<polygon fill="#0000ff" stroke="#0000ff" points="322.647,-127.717 312.059,-128.108 320.58,-134.405 322.647,-127.717"/>
</g>
<!-- normalize_uni -->
<g id="node8" class="node"><title>normalize_uni</title>
<ellipse fill="#e6ffe6" stroke="black" cx="225" cy="-341" rx="153.273" ry="18"/>
<text text-anchor="middle" x="225" y="-337.3" font-family="Times,serif" font-size="14.00">Normalize Univariate Contrasts (ANTs)</text>
</g>
<!-- level1_conest_uni&#45;&gt;normalize_uni -->
<g id="edge15" class="edge"><title>level1_conest_uni&#45;&gt;normalize_uni</title>
<path fill="none" stroke="#0000ff" d="M228.152,-405.822C227.627,-395.19 226.941,-381.306 226.343,-369.204"/>
<polygon fill="#0000ff" stroke="#0000ff" points="229.836,-368.968 225.847,-359.153 222.845,-369.314 229.836,-368.968"/>
</g>
<!-- normalize_uni&#45;&gt;comp_con_per_run -->
<g id="edge12" class="edge"><title>normalize_uni&#45;&gt;comp_con_per_run</title>
<path fill="none" stroke="none" d="M219.91,-322.822C216.728,-312.083 212.563,-298.025 208.952,-285.837"/>
<polygon fill="none" stroke="none" points="212.279,-284.747 206.082,-276.153 205.568,-286.736 212.279,-284.747"/>
</g>
<!-- comp_con_per_run&#45;&gt;write_labels_run -->
<g id="edge7" class="edge"><title>comp_con_per_run&#45;&gt;write_labels_run</title>
<path fill="none" stroke="#ff0000" d="M208.416,-239.697C211.794,-231.813 215.87,-222.304 219.623,-213.546"/>
<polygon fill="#ff0000" stroke="#ff0000" points="222.947,-214.675 223.67,-204.104 216.513,-211.917 222.947,-214.675"/>
</g>
<!-- comp_con_per_run&#45;&gt;level1_conest_multi -->
<g id="edge8" class="edge"><title>comp_con_per_run&#45;&gt;level1_conest_multi</title>
<path fill="none" stroke="#ff0000" d="M126.006,-241.619C106.111,-233.755 86.8831,-221.89 75,-204 66.1473,-190.672 66.0386,-181.255 75,-168 85.4448,-152.551 101.214,-141.605 118.256,-133.849"/>
<polygon fill="#ff0000" stroke="#ff0000" points="119.945,-136.937 127.83,-129.86 117.253,-130.475 119.945,-136.937"/>
</g>
<!-- write_labels_run&#45;&gt;level1_conest_multi -->
<g id="edge13" class="edge"><title>write_labels_run&#45;&gt;level1_conest_multi</title>
<path fill="none" stroke="none" d="M225.067,-167.697C222.394,-159.898 219.174,-150.509 216.199,-141.829"/>
<polygon fill="none" stroke="none" points="219.418,-140.429 212.864,-132.104 212.797,-142.699 219.418,-140.429"/>
</g>
<!-- normalize_multi -->
<g id="node12" class="node"><title>normalize_multi</title>
<ellipse fill="#e6ffe6" stroke="black" cx="202" cy="-42" rx="176.269" ry="18"/>
<text text-anchor="middle" x="202" y="-38.3" font-family="Times,serif" font-size="14.00">Normalize Single Condition Contrasts (ANTs)</text>
</g>
<!-- level1_conest_multi&#45;&gt;normalize_multi -->
<g id="edge9" class="edge"><title>level1_conest_multi&#45;&gt;normalize_multi</title>
<path fill="none" stroke="#ff0000" d="M205.764,-95.6966C205.213,-87.9827 204.551,-78.7125 203.937,-70.1124"/>
<polygon fill="#ff0000" stroke="#ff0000" points="207.425,-69.8295 203.222,-60.1043 200.443,-70.3283 207.425,-69.8295"/>
</g>
</g>
</svg>
