<?xml version="1.0" encoding="UTF-8" standalone="no"?>
<!DOCTYPE svg PUBLIC "-//W3C//DTD SVG 1.1//EN"
 "http://www.w3.org/Graphics/SVG/1.1/DTD/svg11.dtd">
<!-- Generated by graphviz version 2.38.0 (20140413.2041)
 -->
<!-- Title: preproc_anat Pages: 1 -->
<svg width="240pt" height="454pt"
 viewBox="0.00 0.00 240.00 453.74" xmlns="http://www.w3.org/2000/svg" xmlns:xlink="http://www.w3.org/1999/xlink">
<g id="graph0" class="graph" transform="scale(1 1) rotate(0) translate(4 449.74)">
<title>preproc_anat</title>
<polygon fill="white" stroke="none" points="-4,4 -4,-449.74 236,-449.74 236,4 -4,4"/>
<g id="clust1" class="cluster"><title>cluster_preproc_anat</title>
<polygon fill="#b4b4ff" stroke="black" points="8,-8 8,-437.74 224,-437.74 224,-8 8,-8"/>
</g>
<!-- reorient -->
<g id="node1" class="node"><title>reorient</title>
<ellipse fill="#e6e6ff" stroke="black" cx="116" cy="-411.74" rx="100.182" ry="18"/>
<text text-anchor="middle" x="116" y="-408.04" font-family="Times,serif" font-size="14.00">Reorient Image (Nipype)</text>
</g>
<!-- cropFOV -->
<g id="node2" class="node"><title>cropFOV</title>
<ellipse fill="#e6e6ff" stroke="black" cx="116" cy="-339.74" rx="71.4873" ry="18"/>
<text text-anchor="middle" x="116" y="-336.04" font-family="Times,serif" font-size="14.00">Crop FOV (FSL)</text>
</g>
<!-- reorient&#45;&gt;cropFOV -->
<g id="edge1" class="edge"><title>reorient&#45;&gt;cropFOV</title>
<path fill="none" stroke="#0000ff" d="M116,-393.437C116,-385.723 116,-376.453 116,-367.853"/>
<polygon fill="#0000ff" stroke="#0000ff" points="119.5,-367.844 116,-357.844 112.5,-367.844 119.5,-367.844"/>
</g>
<!-- n4 -->
<g id="node3" class="node"><title>n4</title>
<ellipse fill="#e6e6ff" stroke="black" cx="116" cy="-258.87" rx="84.7059" ry="26.7407"/>
<text text-anchor="middle" x="116" y="-262.67" font-family="Times,serif" font-size="14.00">N4 Bias Field</text>
<text text-anchor="middle" x="116" y="-247.67" font-family="Times,serif" font-size="14.00">Correction (ANTs)</text>
</g>
<!-- cropFOV&#45;&gt;n4 -->
<g id="edge2" class="edge"><title>cropFOV&#45;&gt;n4</title>
<path fill="none" stroke="#0000ff" d="M116,-321.626C116,-314.137 116,-305.046 116,-296.168"/>
<polygon fill="#0000ff" stroke="#0000ff" points="119.5,-295.953 116,-285.953 112.5,-295.953 119.5,-295.953"/>
</g>
<!-- segment -->
<g id="node4" class="node"><title>segment</title>
<ellipse fill="#e6e6ff" stroke="black" cx="105" cy="-178" rx="85.5853" ry="18"/>
<text text-anchor="middle" x="105" y="-174.3" font-family="Times,serif" font-size="14.00">Segmentation (SPM)</text>
</g>
<!-- n4&#45;&gt;segment -->
<g id="edge3" class="edge"><title>n4&#45;&gt;segment</title>
<path fill="none" stroke="#0000ff" d="M112.337,-231.607C111.207,-223.506 109.961,-214.568 108.82,-206.392"/>
<polygon fill="#0000ff" stroke="#0000ff" points="112.25,-205.641 107.402,-196.22 105.317,-206.608 112.25,-205.641"/>
</g>
<!-- extract_brain -->
<g id="node5" class="node"><title>extract_brain</title>
<ellipse fill="#e6e6ff" stroke="black" cx="116" cy="-106" rx="92.8835" ry="18"/>
<text text-anchor="middle" x="116" y="-102.3" font-family="Times,serif" font-size="14.00">Extract Brain (Nilearn)</text>
</g>
<!-- n4&#45;&gt;extract_brain -->
<g id="edge4" class="edge"><title>n4&#45;&gt;extract_brain</title>
<path fill="none" stroke="#0000ff" d="M161.131,-235.829C176.343,-225.917 191.585,-212.65 200,-196 207.217,-181.72 207.726,-174.011 200,-160 192.35,-146.127 179.371,-135.385 165.875,-127.314"/>
<polygon fill="#0000ff" stroke="#0000ff" points="167.425,-124.172 156.981,-122.39 164.034,-130.296 167.425,-124.172"/>
</g>
<!-- segment&#45;&gt;extract_brain -->
<g id="edge5" class="edge"><title>segment&#45;&gt;extract_brain</title>
<path fill="none" stroke="#0000ff" d="M107.719,-159.697C108.931,-151.983 110.388,-142.712 111.739,-134.112"/>
<polygon fill="#0000ff" stroke="#0000ff" points="115.217,-134.526 113.312,-124.104 108.302,-133.44 115.217,-134.526"/>
</g>
<!-- antsreg -->
<g id="node6" class="node"><title>antsreg</title>
<ellipse fill="#e6e6ff" stroke="black" cx="116" cy="-34" rx="91.784" ry="18"/>
<text text-anchor="middle" x="116" y="-30.3" font-family="Times,serif" font-size="14.00">Normalization (ANTs)</text>
</g>
<!-- extract_brain&#45;&gt;antsreg -->
<g id="edge6" class="edge"><title>extract_brain&#45;&gt;antsreg</title>
<path fill="none" stroke="#0000ff" d="M116,-87.6966C116,-79.9827 116,-70.7125 116,-62.1124"/>
<polygon fill="#0000ff" stroke="#0000ff" points="119.5,-62.1043 116,-52.1043 112.5,-62.1044 119.5,-62.1043"/>
</g>
</g>
</svg>
